<svg id="visual" viewBox="0 0 900 600" width="900" height="600" xmlns="http://www.w3.org/2000/svg" xmlns:xlink="http://www.w3.org/1999/xlink" version="1.1"><rect x="0" y="0" width="900" height="600" fill="#212529"></rect><path d="M0 386L21.5 392.3C43 398.7 86 411.3 128.8 411.7C171.7 412 214.3 400 257.2 401.3C300 402.7 343 417.3 385.8 420.5C428.7 423.7 471.3 415.3 514.2 401.5C557 387.7 600 368.3 642.8 372C685.7 375.7 728.3 402.3 771.2 403C814 403.7 857 378.3 878.5 365.7L900 353L900 601L878.5 601C857 601 814 601 771.2 601C728.3 601 685.7 601 642.8 601C600 601 557 601 514.2 601C471.3 601 428.7 601 385.8 601C343 601 300 601 257.2 601C214.3 601 171.7 601 128.8 601C86 601 43 601 21.5 601L0 601Z" fill="#fa7268"></path><path d="M0 441L21.5 435.2C43 429.3 86 417.7 128.8 422.2C171.7 426.7 214.3 447.3 257.2 446.7C300 446 343 424 385.8 413.8C428.7 403.7 471.3 405.3 514.2 404.8C557 404.3 600 401.7 642.8 408.2C685.7 414.7 728.3 430.3 771.2 433.8C814 437.3 857 428.7 878.5 424.3L900 420L900 601L878.5 601C857 601 814 601 771.2 601C728.3 601 685.7 601 642.8 601C600 601 557 601 514.2 601C471.3 601 428.7 601 385.8 601C343 601 300 601 257.2 601C214.3 601 171.7 601 128.8 601C86 601 43 601 21.5 601L0 601Z" fill="#ef675c"></path><path d="M0 476L21.5 472.7C43 469.3 86 462.7 128.8 458C171.7 453.3 214.3 450.7 257.2 458.2C300 465.7 343 483.3 385.8 483.7C428.7 484 471.3 467 514.2 458.8C557 450.7 600 451.3 642.8 451.5C685.7 451.7 728.3 451.3 771.2 451.7C814 452 857 453 878.5 453.5L900 454L900 601L878.5 601C857 601 814 601 771.2 601C728.3 601 685.7 601 642.8 601C600 601 557 601 514.2 601C471.3 601 428.7 601 385.8 601C343 601 300 601 257.2 601C214.3 601 171.7 601 128.8 601C86 601 43 601 21.5 601L0 601Z" fill="#e45c51"></path><path d="M0 506L21.5 505.3C43 504.7 86 503.3 128.8 503C171.7 502.7 214.3 503.3 257.2 503.2C300 503 343 502 385.8 504C428.7 506 471.3 511 514.2 516.5C557 522 600 528 642.8 525.3C685.7 522.7 728.3 511.3 771.2 506.3C814 501.3 857 502.7 878.5 503.3L900 504L900 601L878.5 601C857 601 814 601 771.2 601C728.3 601 685.7 601 642.8 601C600 601 557 601 514.2 601C471.3 601 428.7 601 385.8 601C343 601 300 601 257.2 601C214.3 601 171.7 601 128.8 601C86 601 43 601 21.5 601L0 601Z" fill="#d95145"></path><path d="M0 525L21.5 531.3C43 537.7 86 550.3 128.8 557.5C171.7 564.7 214.3 566.3 257.2 568.2C300 570 343 572 385.8 570.7C428.7 569.3 471.3 564.7 514.2 560.3C557 556 600 552 642.8 546.7C685.7 541.3 728.3 534.7 771.2 539C814 543.3 857 558.7 878.5 566.3L900 574L900 601L878.5 601C857 601 814 601 771.2 601C728.3 601 685.7 601 642.8 601C600 601 557 601 514.2 601C471.3 601 428.7 601 385.8 601C343 601 300 601 257.2 601C214.3 601 171.7 601 128.8 601C86 601 43 601 21.5 601L0 601Z" fill="#cd463a"></path></svg>