<svg id="visual" viewBox="0 0 900 600" width="900" height="600" xmlns="http://www.w3.org/2000/svg" xmlns:xlink="http://www.w3.org/1999/xlink" version="1.1"><rect x="0" y="0" width="900" height="600" fill="#212529"></rect><path d="M0 349L21.5 356.7C43 364.3 86 379.7 128.8 386.8C171.7 394 214.3 393 257.2 385.3C300 377.7 343 363.3 385.8 359.8C428.7 356.3 471.3 363.7 514.2 374.3C557 385 600 399 642.8 403C685.7 407 728.3 401 771.2 395.2C814 389.3 857 383.7 878.5 380.8L900 378L900 601L878.5 601C857 601 814 601 771.2 601C728.3 601 685.7 601 642.8 601C600 601 557 601 514.2 601C471.3 601 428.7 601 385.8 601C343 601 300 601 257.2 601C214.3 601 171.7 601 128.8 601C86 601 43 601 21.5 601L0 601Z" fill="#cd463a"></path><path d="M0 436L21.5 435C43 434 86 432 128.8 431.3C171.7 430.7 214.3 431.3 257.2 425.8C300 420.3 343 408.7 385.8 414.5C428.7 420.3 471.3 443.7 514.2 449.3C557 455 600 443 642.8 438C685.7 433 728.3 435 771.2 434.7C814 434.3 857 431.7 878.5 430.3L900 429L900 601L878.5 601C857 601 814 601 771.2 601C728.3 601 685.7 601 642.8 601C600 601 557 601 514.2 601C471.3 601 428.7 601 385.8 601C343 601 300 601 257.2 601C214.3 601 171.7 601 128.8 601C86 601 43 601 21.5 601L0 601Z" fill="#ea6257"></path><path d="M0 500L21.5 491C43 482 86 464 128.8 459.7C171.7 455.3 214.3 464.7 257.2 468.7C300 472.7 343 471.3 385.8 473.8C428.7 476.3 471.3 482.7 514.2 479C557 475.3 600 461.7 642.8 460.3C685.7 459 728.3 470 771.2 469.7C814 469.3 857 457.7 878.5 451.8L900 446L900 601L878.5 601C857 601 814 601 771.2 601C728.3 601 685.7 601 642.8 601C600 601 557 601 514.2 601C471.3 601 428.7 601 385.8 601C343 601 300 601 257.2 601C214.3 601 171.7 601 128.8 601C86 601 43 601 21.5 601L0 601Z" fill="#fa7268"></path><path d="M0 541L21.5 537.5C43 534 86 527 128.8 523.3C171.7 519.7 214.3 519.3 257.2 515.8C300 512.3 343 505.7 385.8 501.2C428.7 496.7 471.3 494.3 514.2 501.3C557 508.3 600 524.7 642.8 527.7C685.7 530.7 728.3 520.3 771.2 513C814 505.7 857 501.3 878.5 499.2L900 497L900 601L878.5 601C857 601 814 601 771.2 601C728.3 601 685.7 601 642.8 601C600 601 557 601 514.2 601C471.3 601 428.7 601 385.8 601C343 601 300 601 257.2 601C214.3 601 171.7 601 128.8 601C86 601 43 601 21.5 601L0 601Z" fill="#ea6257"></path><path d="M0 528L21.5 527.7C43 527.3 86 526.7 128.8 529.8C171.7 533 214.3 540 257.2 544.8C300 549.7 343 552.3 385.8 551.3C428.7 550.3 471.3 545.7 514.2 548.3C557 551 600 561 642.8 558.3C685.7 555.7 728.3 540.3 771.2 535.7C814 531 857 537 878.5 540L900 543L900 601L878.5 601C857 601 814 601 771.2 601C728.3 601 685.7 601 642.8 601C600 601 557 601 514.2 601C471.3 601 428.7 601 385.8 601C343 601 300 601 257.2 601C214.3 601 171.7 601 128.8 601C86 601 43 601 21.5 601L0 601Z" fill="#cd463a"></path></svg>